<?xml version="1.0" encoding="UTF-8"?>
<svg width="32" height="32" viewBox="0 0 32 32" fill="none" xmlns="http://www.w3.org/2000/svg">
  <path d="M24 10H8C6.89543 10 6 10.8954 6 12V22C6 23.1046 6.89543 24 8 24H24C25.1046 24 26 23.1046 26 22V12C26 10.8954 25.1046 10 24 10Z" stroke="#E67E51" stroke-width="2" stroke-linecap="round" stroke-linejoin="round"/>
  <path d="M10 10V8C10 7.46957 10.2107 6.96086 10.5858 6.58579C10.9609 6.21071 11.4696 6 12 6H20C20.5304 6 21.0391 6.21071 21.4142 6.58579C21.7893 6.96086 22 7.46957 22 8V10" stroke="#E67E51" stroke-width="2" stroke-linecap="round" stroke-linejoin="round"/>
  <path d="M16 14V20" stroke="#E67E51" stroke-width="2" stroke-linecap="round" stroke-linejoin="round"/>
  <path d="M12 17H20" stroke="#E67E51" stroke-width="2" stroke-linecap="round" stroke-linejoin="round"/>
</svg>